<svg width="240" height="240" viewBox="0 0 240 240" fill="none" xmlns="http://www.w3.org/2000/svg">
  <path d="M216.79 190.118C229.408 171.897 237.914 149.487 239.181 127.36C240.449 105.234 235.588 83.1861 225.133 63.6438C214.679 44.1015 199.036 27.8219 179.926 16.5963C160.817 5.37069 138.981 -0.365794 116.821 0.0180769L117.343 30.1312C133.962 29.8433 150.339 34.1457 164.672 42.5649C179.004 50.9841 190.736 63.1938 198.577 77.8505C206.418 92.5072 210.063 109.043 209.113 125.638C208.162 142.233 202.724 159.511 193.261 173.176L216.79 190.118Z" fill="#FC7E7D"/>
  <path d="M21.0249 189.177C31.9965 204.531 46.2851 217.485 63.002 226.243C79.7188 235.001 98.2594 239.708 117.129 239.987C135.999 240.265 154.671 236.107 171.639 227.846C188.607 219.586 204.428 207.024 215.848 192L192.319 175.059C183.754 186.327 171.182 194.572 158.456 200.767C145.73 206.963 131.726 210.081 117.574 209.873C103.421 209.664 89.516 206.133 76.9783 199.565C64.4407 192.996 54.6654 183.752 46.4367 172.235L21.0249 189.177Z" fill="#FFD363"/>
  <path d="M115.142 0C71.8481 3.7647 52.0938 19.4568 38.2412 32.3947C24.3886 45.3327 13.7844 61.3568 7.29053 79.1646C0.796691 96.9723 -1.4035 116.061 0.86881 134.879C3.14112 153.697 9.82179 171.714 20.3678 187.464L32.8806 179.086L45.3935 170.707C37.484 158.895 32.4735 145.382 30.7693 131.269C29.065 117.155 30.7152 102.839 35.5855 89.4827C40.4559 76.1269 48.4091 64.1088 58.7985 54.4053C69.188 44.7019 89.7304 31.0588 115.142 30.1176V19.7647V0Z" fill="#A6E5A5"/>
</svg>
