<svg width="40" height="40" viewBox="0 0 40 40" fill="none" xmlns="http://www.w3.org/2000/svg">
  <mask id="path-1-outside-1_10_248" maskUnits="userSpaceOnUse" x="6" y="0" width="28" height="24" fill="black">
    <rect fill="white" x="6" width="28" height="24"/>
    <path d="M11.5147 22.4853C9.83649 20.8071 8.6936 18.6689 8.23058 16.3411C7.76755 14.0133 8.00519 11.6005 8.91344 9.4078C9.8217 7.21509 11.3598 5.34094 13.3332 4.02236C15.3065 2.70379 17.6266 2 20 2C22.3734 2 24.6935 2.70379 26.6668 4.02236C28.6402 5.34094 30.1783 7.21509 31.0866 9.4078C31.9948 11.6005 32.2324 14.0133 31.7694 16.3411C31.3064 18.6689 30.1635 20.8071 28.4853 22.4853L27.6368 21.6368C29.1472 20.1263 30.1758 18.202 30.5925 16.107C31.0092 14.012 30.7953 11.8405 29.9779 9.86702C29.1605 7.89358 27.7762 6.20685 26.0002 5.02013C24.2241 3.83341 22.136 3.2 20 3.2C17.864 3.2 15.7759 3.83341 13.9998 5.02013C12.2238 6.20685 10.8395 7.89358 10.0221 9.86702C9.20468 11.8405 8.9908 14.012 9.40752 16.107C9.82424 18.202 10.8528 20.1263 12.3632 21.6368L11.5147 22.4853Z"/>
  </mask>
  <path d="M11.5147 22.4853C9.83649 20.8071 8.6936 18.6689 8.23058 16.3411C7.76755 14.0133 8.00519 11.6005 8.91344 9.4078C9.8217 7.21509 11.3598 5.34094 13.3332 4.02236C15.3065 2.70379 17.6266 2 20 2C22.3734 2 24.6935 2.70379 26.6668 4.02236C28.6402 5.34094 30.1783 7.21509 31.0866 9.4078C31.9948 11.6005 32.2324 14.0133 31.7694 16.3411C31.3064 18.6689 30.1635 20.8071 28.4853 22.4853L27.6368 21.6368C29.1472 20.1263 30.1758 18.202 30.5925 16.107C31.0092 14.012 30.7953 11.8405 29.9779 9.86702C29.1605 7.89358 27.7762 6.20685 26.0002 5.02013C24.2241 3.83341 22.136 3.2 20 3.2C17.864 3.2 15.7759 3.83341 13.9998 5.02013C12.2238 6.20685 10.8395 7.89358 10.0221 9.86702C9.20468 11.8405 8.9908 14.012 9.40752 16.107C9.82424 18.202 10.8528 20.1263 12.3632 21.6368L11.5147 22.4853Z" fill="#414141"/>
  <path d="M11.5147 22.4853C9.83649 20.8071 8.6936 18.6689 8.23058 16.3411C7.76755 14.0133 8.00519 11.6005 8.91344 9.4078C9.8217 7.21509 11.3598 5.34094 13.3332 4.02236C15.3065 2.70379 17.6266 2 20 2C22.3734 2 24.6935 2.70379 26.6668 4.02236C28.6402 5.34094 30.1783 7.21509 31.0866 9.4078C31.9948 11.6005 32.2324 14.0133 31.7694 16.3411C31.3064 18.6689 30.1635 20.8071 28.4853 22.4853L27.6368 21.6368C29.1472 20.1263 30.1758 18.202 30.5925 16.107C31.0092 14.012 30.7953 11.8405 29.9779 9.86702C29.1605 7.89358 27.7762 6.20685 26.0002 5.02013C24.2241 3.83341 22.136 3.2 20 3.2C17.864 3.2 15.7759 3.83341 13.9998 5.02013C12.2238 6.20685 10.8395 7.89358 10.0221 9.86702C9.20468 11.8405 8.9908 14.012 9.40752 16.107C9.82424 18.202 10.8528 20.1263 12.3632 21.6368L11.5147 22.4853Z" stroke="#414141" stroke-width="2.8827" stroke-linejoin="round" mask="url(#path-1-outside-1_10_248)"/>
  <line x1="1.44135" y1="-1.44135" x2="13.5586" y2="-1.44135" transform="matrix(-1 0 0 1 27.4135 28)" stroke="#414141" stroke-width="2.8827" stroke-linecap="round" stroke-linejoin="round"/>
  <line x1="1.44135" y1="-1.44135" x2="10.5586" y2="-1.44135" transform="matrix(-1 0 0 1 26 33)" stroke="#414141" stroke-width="2.8827" stroke-linecap="round" stroke-linejoin="round"/>
  <line x1="1.44135" y1="-1.44135" x2="8.55865" y2="-1.44135" transform="matrix(-1 0 0 1 24.6667 38)" stroke="#414141" stroke-width="2.8827" stroke-linecap="round" stroke-linejoin="round"/>
</svg>
